# xmcd
#
# Track frame offsets: 
#        182
#        30382
#        60380
#        89727
#        122792
#        151205
#        215617
#        246815
#
# Disc length: 3640 seconds
#
# Revision: 2
# Processed by: cddbd v1.5.2PL0 Copyright (c) Steve Scherf et al.
# Submitted via: ExactAudioCopy v0.99pb5
#
DISCID=660e3608
DTITLE=D¿em - Akustycznie
DYEAR=1994
DGENRE=Blues
TTITLE0=Jesiony
TTITLE1=Autsajder
TTITLE2=Zloty Paw
TTITLE3=Mala Aleja Roz
TTITLE4=Czerwony Jak Cegla
TTITLE5=Detox
TTITLE6=List Do M.
TTITLE7=Wehikul Czasu
EXTD=
EXTT0=
EXTT1=
EXTT2=
EXTT3=
EXTT4=
EXTT5=
EXTT6=
EXTT7=
PLAYORDER=
